<?xml version="1.0" standalone="no"?>
<!DOCTYPE svg PUBLIC "-//W3C//DTD SVG 20010904//EN"
 "http://www.w3.org/TR/2001/REC-SVG-20010904/DTD/svg10.dtd">
<svg version="1.0" xmlns="http://www.w3.org/2000/svg"
 width="1920.000000pt" height="1920.000000pt" viewBox="0 0 1920.000000 1920.000000"
 preserveAspectRatio="xMidYMid meet">

<g transform="translate(0.000000,1920.000000) scale(0.100000,-0.100000)"
fill="#000000" stroke="none">
<path d="M9836 15866 c-114 -8 -151 -14 -154 -25 -3 -8 6 -255 19 -547 22
-505 22 -536 6 -586 -31 -98 -100 -140 -233 -141 -66 0 -91 5 -136 25 -109 50
-118 106 -118 764 0 430 -2 483 -16 488 -9 3 -114 6 -234 6 -196 0 -220 -2
-229 -17 -10 -18 -9 -36 15 -383 9 -124 20 -380 24 -570 5 -190 14 -364 19
-388 38 -148 134 -236 306 -278 86 -22 356 -29 501 -14 360 37 509 135 542
355 11 70 16 1272 6 1308 -6 20 -74 21 -318 3z"/>
<path d="M10591 15768 c-9 -24 -24 -105 -91 -494 -46 -268 -64 -351 -166 -761
-41 -165 -71 -308 -68 -317 9 -24 150 -60 358 -92 81 -12 102 -12 112 -2 6 7
30 119 53 248 89 501 123 665 195 952 80 319 93 383 79 391 -5 3 -65 15 -134
27 -68 12 -168 32 -221 46 -53 13 -99 24 -103 24 -3 0 -9 -10 -14 -22z"/>
<path d="M11504 15558 c-9 -18 -42 -71 -73 -118 -78 -116 -105 -166 -98 -182
2 -8 110 -55 238 -106 129 -51 241 -96 249 -102 12 -8 10 -14 -14 -39 -34 -36
-228 -177 -516 -376 -118 -82 -246 -172 -285 -200 -69 -51 -70 -52 -82 -116
-7 -35 -24 -100 -38 -143 -26 -76 -26 -80 -8 -96 10 -9 133 -65 273 -124 140
-60 348 -151 462 -203 114 -52 214 -93 222 -90 28 11 196 322 196 363 0 8 -24
20 -57 30 -193 54 -268 80 -447 154 -66 28 -75 34 -64 47 18 22 297 219 603
426 143 96 271 184 285 195 35 28 121 269 108 304 -3 7 -32 24 -64 37 -33 14
-171 74 -309 134 -380 166 -546 237 -556 237 -4 0 -16 -15 -25 -32z"/>
<path d="M7575 15565 c-318 -70 -548 -283 -636 -587 -30 -105 -37 -279 -15
-387 41 -202 123 -360 255 -492 160 -160 348 -238 576 -239 l80 0 34 -88 c60
-156 69 -161 213 -116 205 64 388 149 388 179 0 8 -37 31 -82 53 -46 22 -102
57 -126 77 l-42 37 57 42 c99 73 180 170 233 281 63 130 83 219 82 365 -2 412
-274 772 -657 870 -92 24 -264 26 -360 5z m323 -456 c115 -55 209 -182 242
-328 19 -82 8 -205 -24 -273 -85 -180 -342 -271 -520 -184 -144 70 -256 283
-243 461 10 147 76 249 200 310 129 63 232 67 345 14z"/>
<path d="M6061 14089 c-55 -24 -98 -58 -279 -222 -811 -734 -1401 -1714 -1676
-2781 -168 -652 -217 -1375 -140 -2066 126 -1127 615 -2231 1368 -3085 112
-128 442 -454 566 -561 355 -305 756 -571 1180 -782 l215 -107 90 0 c67 0 99
5 126 18 61 30 113 82 143 142 37 73 41 174 9 246 -39 88 -80 121 -259 208
-860 420 -1564 1044 -2075 1841 -423 660 -684 1402 -776 2211 -22 195 -25 818
-5 1004 104 952 423 1787 966 2525 196 268 542 640 796 857 133 113 165 167
164 278 -1 58 -6 84 -28 129 -33 66 -100 129 -163 150 -66 23 -167 20 -222 -5z"/>
<path d="M12913 14094 c-59 -21 -127 -86 -159 -150 -22 -45 -27 -71 -28 -129
-1 -111 31 -165 164 -278 254 -217 600 -589 796 -857 496 -674 821 -1472 938
-2300 35 -250 41 -350 41 -710 -1 -399 -10 -520 -65 -848 -213 -1265 -918
-2423 -1945 -3197 -275 -207 -549 -375 -859 -526 -179 -87 -220 -120 -259
-208 -32 -72 -28 -173 9 -246 30 -60 82 -112 143 -142 27 -13 59 -18 126 -18
l90 0 215 107 c423 210 825 477 1180 782 124 107 454 433 566 561 753 854
1242 1958 1368 3085 42 371 46 858 11 1205 -141 1408 -791 2704 -1827 3642
-250 226 -278 243 -393 242 -38 0 -89 -7 -112 -15z"/>
<path d="M9575 12600 c-398 -17 -836 -84 -1241 -190 -621 -161 -940 -372
-1006 -665 -10 -45 -13 -150 -11 -420 3 -828 68 -1310 196 -1447 45 -48 64
-46 204 20 809 382 1436 477 1838 278 240 -119 359 -327 381 -663 25 -374
-173 -828 -605 -1393 -320 -417 -449 -628 -564 -920 -86 -221 -112 -386 -97
-625 14 -231 44 -351 105 -422 62 -73 87 -75 300 -30 166 36 303 48 640 56
323 8 352 14 408 80 32 39 32 36 52 229 19 180 41 263 95 373 63 128 136 225
270 360 184 185 354 310 701 517 103 62 224 140 270 173 485 359 793 807 938
1365 119 460 132 1001 35 1444 -75 342 -251 701 -462 945 -434 501 -1002 802
-1707 904 -113 17 -519 45 -560 39 -5 -1 -86 -4 -180 -8z"/>
<path d="M9415 5729 c-241 -35 -476 -159 -657 -348 -271 -280 -386 -658 -323
-1051 70 -426 395 -818 788 -948 431 -143 883 -40 1200 272 113 111 177 200
247 341 180 363 168 802 -31 1151 -138 241 -387 449 -640 534 -161 55 -404 75
-584 49z"/>
</g>
</svg>
